<svg width="60" height="60" viewBox="0 0 60 60" fill="none" xmlns="http://www.w3.org/2000/svg">
<g clip-path="url(#clip0)">
<path d="M30 0L4.01923 14.9999V44.9999L30 60L55.9807 44.9999V14.9999L30 0ZM31.7611 17.7778H47.6469L31.761 26.9496L31.7611 17.7778ZM28.2388 26.9496L12.3529 17.7778H28.2388V26.9496ZM26.5365 30.0339L18.5458 34.6223L10.5765 20.8193L26.5365 30.0339ZM28.2388 33.1179V51.4105L20.307 37.6724L28.2388 33.1179ZM31.7611 33.0503L39.704 37.6362L31.7611 51.3938V33.0503ZM33.5222 30L49.4081 20.8282L41.4652 34.5859L33.5222 30ZM31.7611 14.2556V5.08393L47.647 14.2557L31.7611 14.2556ZM28.2388 14.2556H12.3529L28.2388 5.08381V14.2556ZM7.5415 22.6071L15.4914 36.3763L7.5415 40.9411V22.6071ZM17.2524 39.4265L25.1739 53.1466L9.30979 43.9873L17.2524 39.4265ZM42.7543 39.3973L50.6973 43.9832L34.8114 53.1549L42.7543 39.3973ZM44.5155 36.3469L52.4584 22.5893V40.9327L44.5155 36.3469Z" fill="#282C34"/>
<path d="M30 0V60L55.9808 44.9999V14.9999L30 0ZM31.7611 5.08393L47.6471 14.2557H31.7611V5.08393ZM31.7611 17.7778H47.6469L31.761 26.9496V17.7778H31.7611ZM49.4082 20.8282L41.4652 34.5859L33.5223 30L49.4082 20.8282ZM31.7611 33.0503L39.7041 37.6362L31.7611 51.3938V33.0503ZM34.8114 53.1549L42.7544 39.3973L50.6973 43.9832L34.8114 53.1549ZM52.4585 40.9328L44.5155 36.3469L52.4585 22.5893V40.9328Z" fill="#61DAFB"/>
</g>
<defs>
<clipPath id="clip0">
<rect width="60" height="60" fill="white"/>
</clipPath>
</defs>
</svg>
