<svg width="82" height="90" viewBox="0 0 82 90" fill="none" xmlns="http://www.w3.org/2000/svg">
<path d="M78.8 34.1768C79.708 34.1768 80.444 34.9127 80.444 35.8207V81.8803C80.444 85.6356 77.3997 88.6798 73.6445 88.6798H8.35572C4.60047 88.6798 1.55621 85.6356 1.55621 81.8803V35.8207C1.55621 34.9127 2.29219 34.1768 3.20016 34.1768H78.8Z" fill="#B3E5EE"/>
<path d="M6.54047 34.1768V80.6502C6.54047 83.7262 9.04203 86.2284 12.1171 86.2284H70.0591C73.134 86.2284 75.6357 83.726 75.6357 80.6502V34.1768H6.54047Z" fill="#86D7E5"/>
<path d="M70.7174 30.855H11.4588C10.686 30.855 10.0611 31.4816 10.0611 32.2544V74.3027L29.1575 81.2778L41.0881 82.65L69.6826 77.4883L72.1149 74.3027V32.2544C72.1151 31.4816 71.4902 30.855 70.7174 30.855V30.855Z" fill="#F9F7F7"/>
<path d="M39.7679 30.855H42.4083V82.7081H39.7679V30.855Z" fill="#F8F3F2"/>
<path d="M24.7932 30.855L32.5366 42.9099V43.8451C32.5366 45.3936 33.3081 46.7646 34.4863 47.5963V49.0669C34.4863 52.144 36.9898 54.6475 40.067 54.6475H42.1096C45.1868 54.6475 47.6903 52.144 47.6903 49.0669V47.5963C48.8684 46.7646 49.64 45.3936 49.64 43.8451V42.9099L57.3834 30.855H24.7932Z" fill="#F8F3F2"/>
<path d="M17.3897 75.7861V30.855H11.4588C10.686 30.855 10.0611 31.4816 10.0611 32.2544V74.3027L17.6276 77.0663C17.4762 76.668 17.3897 76.2376 17.3897 75.7861V75.7861Z" fill="#F8F3F2"/>
<path d="M41.0881 82.6501V82.7082H12.1171C10.9817 82.7082 10.0611 81.7875 10.0611 80.6504V74.3027H32.7408C37.351 74.3027 41.0881 78.0399 41.0881 82.6501Z" fill="#F2EAE7"/>
<path d="M72.1151 74.3027V80.6504C72.1151 81.7875 71.1945 82.7082 70.0591 82.7082H41.0881V82.6501C41.0881 78.0399 44.8252 74.3027 49.4355 74.3027H72.1151Z" fill="#F2EAE7"/>
<path d="M45.0495 43.6826H37.1267V49.067C37.1267 50.6907 38.4431 52.007 40.0668 52.007H42.1094C43.7333 52.007 45.0495 50.6907 45.0495 49.067V43.6826Z" fill="#A59CA6"/>
<path d="M45.0495 43.6826H39.3931H38.7237H37.1267V49.067C37.1267 50.6907 38.4431 52.007 40.0668 52.007H42.1094C43.2473 52.007 44.2323 51.3594 44.721 50.4136C44.6076 50.4268 44.4929 50.4356 44.3758 50.4356H42.3331C41.0414 50.4356 39.9456 49.6021 39.5517 48.4437C39.4035 48.008 39.7265 47.5551 40.1868 47.5551H45.0496V43.6826H45.0495Z" fill="#8F8390"/>
<path d="M58.6457 18.8778C58.6457 9.18103 50.7849 1.32007 41.088 1.32007C31.391 1.32007 23.5302 9.18085 23.5302 18.8778C23.5302 22.6397 24.7138 26.1248 26.7283 28.9823L35.1769 42.1349V43.8452C35.1769 44.922 36.0498 45.7949 37.1266 45.7949H45.0493C46.1261 45.7949 46.999 44.922 46.999 43.8452V42.1349L55.4476 28.9823C57.4621 26.125 58.6457 22.6397 58.6457 18.8778V18.8778Z" fill="#FBE88C"/>
<path d="M34.1327 31.2236C32.0265 28.1348 30.789 24.3674 30.789 20.3008C30.789 11.2541 36.9097 3.68636 45.1041 1.78312C43.8138 1.48106 42.4705 1.32104 41.0881 1.32104C31.3914 1.32104 23.5304 9.18183 23.5304 18.8788C23.5304 22.6407 24.714 26.1258 26.7285 28.9833L35.1771 42.1359V43.8462C35.1771 44.9229 36.05 45.7959 37.1268 45.7959H42.1445L34.1327 31.2236Z" fill="#FBE372"/>
<path d="M41.7454 79.3977C41.3222 80.3972 41.088 81.4963 41.088 82.6502V82.7083H70.0589C71.1943 82.7083 72.115 81.7877 72.115 80.6505V79.3979H41.7454V79.3977Z" fill="#EDE2DD"/>
<path d="M21.0012 79.3976C19.0066 79.3976 17.3897 77.7807 17.3897 75.7861V74.3027H10.0611V80.6504C10.0611 81.7875 10.9817 82.7082 12.1171 82.7082H41.0881V82.6501C41.0881 81.4962 40.854 80.3972 40.4306 79.3976H21.0012Z" fill="#EDE2DD"/>
<path d="M78.8 32.8567H73.4362V32.2543C73.4362 30.7549 72.2163 29.5352 70.7169 29.5352H60.138C59.4089 29.5352 58.8178 30.1261 58.8178 30.8554C58.8178 31.5847 59.4089 32.1756 60.138 32.1756H70.7169C70.7604 32.1756 70.7957 32.2108 70.7957 32.2543V48.3517C70.7957 49.081 71.3869 49.6719 72.116 49.6719C72.8451 49.6719 73.4362 49.081 73.4362 48.3517V35.4971H78.8C78.9785 35.4971 79.1237 35.6423 79.1237 35.8208V81.8804C79.1237 84.9016 76.6658 87.3596 73.6446 87.3596H8.35551C5.33431 87.3596 2.87641 84.9016 2.87641 81.8804V35.8208C2.87641 35.6423 3.02163 35.4971 3.20013 35.4971H8.73996V80.6511C8.73996 82.5127 10.2545 84.0275 12.1164 84.0275H70.0596C71.9215 84.0275 73.436 82.5129 73.436 80.6511V53.9827C73.436 53.2534 72.8449 52.6625 72.1158 52.6625C71.3867 52.6625 70.7956 53.2534 70.7956 53.9827V72.9818H49.4354C46.6689 72.9818 44.1721 74.1517 42.4083 76.0204V58.9429C42.4083 58.2136 41.8172 57.6227 41.0881 57.6227C40.359 57.6227 39.7679 58.2136 39.7679 58.9429V76.0206C38.004 74.1519 35.5071 72.982 32.7407 72.982H26.7417C26.0125 72.982 25.4214 73.5729 25.4214 74.3022C25.4214 75.0315 26.0125 75.6224 26.7417 75.6224H32.7407C36.1844 75.6224 39.0555 78.1131 39.6522 81.387H12.1164C11.7105 81.387 11.3804 81.057 11.3804 80.6511V75.6224H21.1105C21.8396 75.6224 22.4307 75.0315 22.4307 74.3022C22.4307 73.5729 21.8396 72.982 21.1105 72.982H11.3804V32.2543C11.3804 32.2108 11.4158 32.1756 11.4593 32.1756H22.0381C22.7673 32.1756 23.3584 31.5847 23.3584 30.8554C23.3584 30.1261 22.7673 29.5352 22.0381 29.5352H11.4593C9.95985 29.5352 8.73996 30.755 8.73996 32.2543V32.8567H3.20013C1.56569 32.8567 0.235962 34.1864 0.235962 35.8208V81.8804C0.235962 86.3576 3.87837 90 8.35551 90H73.6443C78.1214 90 81.7638 86.3576 81.7638 81.8804V35.8208C81.764 34.1864 80.4344 32.8567 78.8 32.8567V32.8567ZM49.4354 75.6222H70.7956V80.6511C70.7956 81.057 70.4655 81.387 70.0596 81.387H42.5241C43.1207 78.1129 45.9917 75.6222 49.4354 75.6222V75.6222Z" fill="black"/>
<path d="M23.4858 18.5238C24.2105 18.591 24.8557 18.0593 24.9242 17.3333C25.3017 13.3297 27.1504 9.62285 30.1302 6.89579C33.1286 4.15184 37.0201 2.64045 41.0881 2.64045C50.0415 2.64045 57.3256 9.92456 57.3256 18.8778C57.3256 22.2468 56.3031 25.4777 54.3687 28.2216C54.3578 28.2371 54.3472 28.253 54.3368 28.2688L45.8884 41.4214C45.7517 41.6344 45.679 41.8819 45.679 42.135V43.8453C45.679 44.1925 45.3966 44.4748 45.0495 44.4748H44.9632L45.8043 30.2032H47.3083C49.4604 30.2032 51.2112 28.4524 51.2112 26.3004V26.1403C51.2112 23.9883 49.4604 22.2375 47.3083 22.2375C45.245 22.2375 43.5337 23.851 43.4122 25.9107L43.3149 27.5627H38.6851L38.5878 25.9107C38.4665 23.851 36.755 22.2375 34.6917 22.2375C32.5396 22.2375 30.7888 23.9883 30.7888 26.1403V26.3004C30.7888 28.4524 32.5396 30.2032 34.6917 30.2032H36.1957L37.0362 44.4657C36.7322 44.4213 36.4972 44.1615 36.4972 43.8453V42.135C36.4972 41.8819 36.4245 41.6344 36.2879 41.4214L27.8394 28.2688C27.8292 28.253 27.8186 28.2371 27.8077 28.2216C26.5929 26.4983 25.7374 24.5833 25.2655 22.5295C25.1019 21.8189 24.3925 21.3755 23.683 21.5387C22.9723 21.7022 22.5287 22.4105 22.6921 23.1212C23.2392 25.5009 24.2287 27.7206 25.633 29.7191L33.8571 42.5221V43.845C33.8571 45.1781 34.66 46.3256 35.8069 46.8341V49.0667C35.8069 51.416 37.718 53.3272 40.0673 53.3272H42.11C44.4591 53.3272 46.3704 51.416 46.3704 49.0667V46.8341C47.5171 46.3256 48.3201 45.1782 48.3201 43.845V42.5221L56.544 29.7191C58.7831 26.5328 59.9666 22.7844 59.9666 18.8776C59.9659 8.46844 51.4973 0 41.0881 0C36.3585 0 31.8339 1.75731 28.3476 4.94802C24.8838 8.11832 22.7345 12.4286 22.2955 17.0855C22.2269 17.8116 22.7599 18.4555 23.4858 18.5238V18.5238ZM46.0481 26.066C46.0874 25.3997 46.641 24.8778 47.3083 24.8778C48.0045 24.8778 48.5708 25.4441 48.5708 26.1401V26.3003C48.5708 26.9963 48.0045 27.5626 47.3083 27.5626H45.9599L46.0481 26.066ZM34.6917 27.5626C33.9955 27.5626 33.4292 26.9963 33.4292 26.3003V26.1401C33.4292 25.4441 33.9955 24.8778 34.6917 24.8778C35.3592 24.8778 35.9126 25.3997 35.9519 26.066L36.0401 27.5626H34.6917ZM43.1593 30.203L42.3184 44.4746H39.6818L38.8409 30.203H43.1593ZM43.7293 49.0669C43.7293 49.9601 43.0026 50.6869 42.1093 50.6869H40.0666C39.1734 50.6869 38.4466 49.9601 38.4466 49.0669V47.1151H43.7291V49.0669H43.7293Z" fill="black"/>
<path d="M64.2138 10.025C64.5231 10.025 64.8336 9.91693 65.0843 9.69689L67.9648 7.16769C68.5128 6.68678 68.5669 5.8524 68.086 5.30459C67.605 4.75679 66.7708 4.70257 66.2229 5.18348L63.3423 7.71268C62.7943 8.19359 62.7403 9.02797 63.2212 9.57578C63.4823 9.87309 63.8472 10.025 64.2138 10.025Z" fill="black"/>
<path d="M63.3423 17.9875L66.2229 20.5168C66.4735 20.7371 66.784 20.845 67.0935 20.845C67.4602 20.845 67.8251 20.693 68.0861 20.3957C68.5672 19.8479 68.513 19.0137 67.9652 18.5326L65.0847 16.0033C64.5367 15.522 63.7026 15.5764 63.2216 16.1244C62.7403 16.6722 62.7943 17.5062 63.3423 17.9875Z" fill="black"/>
<path d="M14.2112 7.16765L17.0917 9.69684C17.3424 9.91706 17.6529 10.025 17.9622 10.025C18.3288 10.025 18.6938 9.87305 18.9548 9.57574C19.4359 9.02793 19.3817 8.19355 18.8337 7.71264L15.9531 5.18344C15.4053 4.70217 14.571 4.75657 14.09 5.30455C13.609 5.85235 13.6632 6.68656 14.2112 7.16765V7.16765Z" fill="black"/>
<path d="M15.0826 20.845C15.3919 20.845 15.7024 20.7369 15.9533 20.5169L18.8338 17.9875C19.3816 17.5064 19.4359 16.6722 18.9548 16.1244C18.4739 15.5766 17.6397 15.5224 17.0917 16.0033L14.2111 18.5327C13.6633 19.0138 13.6091 19.848 14.0902 20.3958C14.3511 20.6931 14.7158 20.845 15.0826 20.845V20.845Z" fill="black"/>
<path d="M29.4073 45.7948C29.4073 45.0655 28.8162 44.4746 28.087 44.4746H15.0821C14.353 44.4746 13.7619 45.0655 13.7619 45.7948C13.7619 46.5241 14.353 47.1151 15.0821 47.1151H28.087C28.8162 47.1151 29.4073 46.5241 29.4073 45.7948Z" fill="black"/>
<path d="M32.109 51.1902H17.467C16.7379 51.1902 16.1468 51.7811 16.1468 52.5104C16.1468 53.2397 16.7379 53.8306 17.467 53.8306H32.109C32.8381 53.8306 33.4292 53.2397 33.4292 52.5104C33.4292 51.7811 32.8381 51.1902 32.109 51.1902Z" fill="black"/>
<path d="M32.109 57.6228H17.467C16.7379 57.6228 16.1468 58.2137 16.1468 58.943C16.1468 59.6723 16.7379 60.2632 17.467 60.2632H32.109C32.8381 60.2632 33.4292 59.6723 33.4292 58.943C33.4292 58.2137 32.8381 57.6228 32.109 57.6228Z" fill="black"/>
<path d="M32.109 64.0549H17.467C16.7379 64.0549 16.1468 64.6459 16.1468 65.3752C16.1468 66.1044 16.7379 66.6954 17.467 66.6954H32.109C32.8381 66.6954 33.4292 66.1044 33.4292 65.3752C33.4292 64.6459 32.8381 64.0549 32.109 64.0549Z" fill="black"/>
<path d="M68.4143 45.7948C68.4143 45.0655 67.8232 44.4746 67.0941 44.4746H54.0891C53.36 44.4746 52.7689 45.0655 52.7689 45.7948C52.7689 46.5241 53.36 47.1151 54.0891 47.1151H67.0941C67.8232 47.1151 68.4143 46.5241 68.4143 45.7948Z" fill="black"/>
<path d="M64.709 51.1902H50.067C49.3379 51.1902 48.7468 51.7811 48.7468 52.5104C48.7468 53.2397 49.3379 53.8306 50.067 53.8306H64.709C65.4381 53.8306 66.0292 53.2397 66.0292 52.5104C66.0292 51.7811 65.4381 51.1902 64.709 51.1902Z" fill="black"/>
<path d="M64.709 57.6228H50.067C49.3379 57.6228 48.7468 58.2137 48.7468 58.943C48.7468 59.6723 49.3379 60.2632 50.067 60.2632H64.709C65.4381 60.2632 66.0292 59.6723 66.0292 58.943C66.0292 58.2137 65.4381 57.6228 64.709 57.6228Z" fill="black"/>
<path d="M64.709 64.0549H50.067C49.3379 64.0549 48.7468 64.6459 48.7468 65.3752C48.7468 66.1044 49.3379 66.6954 50.067 66.6954H64.709C65.4381 66.6954 66.0292 66.1044 66.0292 65.3752C66.0292 64.6459 65.4381 64.0549 64.709 64.0549Z" fill="black"/>
</svg>
