<svg width="60" height="100" viewBox="0 0 60 100" fill="none" xmlns="http://www.w3.org/2000/svg">
<g clip-path="url(#clip0)">
<path d="M2.34649 61.6814C0.915215 58.9218 1.87804 55.4337 4.71389 53.8574C7.44598 52.3361 10.9288 53.4882 12.663 56.0898C12.663 56.0898 19.2662 69.9043 19.2685 69.9066C19.2685 64.4318 19.2685 22.4609 19.2685 22.4609C19.2685 19.7639 21.4543 17.5781 24.1513 17.5781C26.8483 17.5781 29.0341 19.7639 29.0341 22.4609V48.2422C29.0341 45.5452 31.2199 43.3594 33.9169 43.3594C36.6139 43.3594 38.7997 45.5452 38.7997 48.2422V52.1484C38.7997 49.4514 40.9856 47.2656 43.6826 47.2656C46.3795 47.2656 48.5654 49.4514 48.5654 52.1484V58.9844L48.6607 59.0019C49.104 56.7635 51.0792 55.0781 53.4482 55.0781C56.1452 55.0781 58.331 57.2639 58.331 59.9609V68.338C58.331 75.4021 56.2291 84.0881 52.2565 91.2773C51.122 93.3304 50.5185 95.6482 50.5185 97.9942V98.0469H19.2685V98.0331C19.2685 95.5315 18.5612 93.1091 17.2215 90.9943C7.66494 75.9003 2.34649 61.8103 2.34649 61.6814V61.6814Z" fill="#FFBEA8"/>
<path d="M50.5185 76.5625C51.5965 76.5625 52.4716 75.6874 52.4716 74.6094C52.4716 73.5313 51.5965 72.6562 50.5185 72.6562C49.4405 72.6562 48.5654 73.5313 48.5654 74.6094C48.5654 75.6874 49.4405 76.5625 50.5185 76.5625Z" fill="black"/>
<path d="M25.1279 9.76562V1.95312C25.1279 0.874329 24.2535 0 23.1747 0C22.0959 0 21.2216 0.874329 21.2216 1.95312V9.76562C21.2216 10.8444 22.0959 11.7188 23.1747 11.7188C24.2535 11.7188 25.1279 10.8444 25.1279 9.76562Z" fill="black"/>
<path d="M36.5521 10.8695L42.0773 5.34357C42.8403 4.58139 42.8403 3.34467 42.0773 2.58173C41.3144 1.81879 40.0777 1.81879 39.3147 2.58173L33.7895 8.10693C33.0266 8.86987 33.0266 10.1066 33.7895 10.8695C34.5525 11.6325 35.7892 11.6317 36.5521 10.8695Z" fill="black"/>
<path d="M9.79736 10.8695C10.5603 11.6317 11.797 11.6317 12.56 10.8695C13.3229 10.1066 13.3229 8.86987 12.56 8.10693L7.03476 2.58173C6.27182 1.81879 5.0351 1.81879 4.27216 2.58173C3.50922 3.3439 3.50922 4.58063 4.27216 5.34357L9.79736 10.8695Z" fill="black"/>
<path d="M0.532218 62.4153C1.0884 64.0976 3.27193 69.062 4.42931 71.55C6.74407 76.5244 10.5557 84.1171 15.5713 92.0387C16.7119 93.84 17.3154 95.9129 17.3154 98.0469C17.3154 99.1257 18.1897 100 19.2685 100H50.5185C51.5973 100 52.4716 99.1257 52.4716 98.0469V97.9942C52.4716 95.9869 52.9881 93.9903 53.9662 92.2218C57.9221 85.0624 60.2841 76.1337 60.2841 68.338V59.9609C60.2841 56.1913 57.2171 53.125 53.4482 53.125C52.4075 53.125 51.4127 53.3623 50.5185 53.788V52.1484C50.5185 48.3788 47.4515 45.3125 43.6825 45.3125C42.5023 45.3125 41.3914 45.6131 40.4217 46.1418C39.5329 43.3975 36.9534 41.4062 33.9169 41.4062C32.8686 41.4062 31.8753 41.6443 30.9872 42.067V22.4609C30.9872 18.6913 27.9202 15.625 24.1513 15.625C20.3816 15.625 17.3154 18.6913 17.3154 22.4609V61.293C14.1576 54.6875 14.3986 55.1727 14.288 55.0064C11.9115 51.4427 7.28881 50.1884 3.76479 52.1507C0.0920016 54.1916 -1.30341 58.6708 0.532218 62.4153V62.4153ZM5.66375 55.5641C7.36053 54.6188 9.71267 55.2956 10.9662 57.0686C18.0814 71.9513 17.5786 70.9785 17.8876 71.2875C19.109 72.509 21.2216 71.6522 21.2216 69.9066V22.4609C21.2216 20.8458 22.5362 19.5312 24.1513 19.5312C25.7664 19.5312 27.081 20.8458 27.081 22.4609V58.9844C27.081 60.0632 27.9553 60.9375 29.0341 60.9375C30.1129 60.9375 30.9872 60.0632 30.9872 58.9844V48.2422C30.9872 46.627 32.3018 45.3125 33.9169 45.3125C35.5321 45.3125 36.8466 46.627 36.8466 48.2422V58.9844C36.8466 60.0632 37.7209 60.9375 38.7997 60.9375C39.8785 60.9375 40.7529 60.0632 40.7529 58.9844V52.1484C40.7529 50.5333 42.0674 49.2188 43.6825 49.2188C45.2977 49.2188 46.6122 50.5333 46.6122 52.1484C46.6244 59.301 46.6214 60.0563 46.6122 62.8906C46.6122 63.9694 47.4866 64.8438 48.5654 64.8438C49.6442 64.8438 50.5185 63.9694 50.5185 62.8906V59.9609C50.5185 58.3214 51.8529 57.0312 53.4482 57.0312C55.0633 57.0312 56.3779 58.3458 56.3779 59.9609V68.338C56.3779 75.5035 54.1981 83.7257 50.5475 90.3328C49.5595 92.1188 48.927 94.0811 48.6813 96.0938H21.0965C20.8142 93.9186 20.0589 91.8243 18.8718 89.949C9.0451 74.4293 4.37514 61.306 4.05624 60.7353C3.11248 58.8562 3.81133 56.5933 5.66375 55.5641V55.5641Z" fill="black"/>
<path d="M41.6226 93.4006C42.516 93.9964 43.7298 93.7599 44.331 92.8589C45.11 91.5794 47.7513 88.2675 49.8547 82.7065C50.237 81.6979 49.7281 80.5702 48.7195 80.1888C47.7101 79.8065 46.5832 80.3154 46.2018 81.3248C44.2822 86.3976 41.866 89.4074 41.0809 90.6921C40.4828 91.5894 40.7254 92.8017 41.6226 93.4006Z" fill="black"/>
</g>
<defs>
<clipPath id="clip0">
<rect width="60" height="100" fill="white"/>
</clipPath>
</defs>
</svg>
