<svg width="69" height="100" viewBox="0 0 69 100" fill="none" xmlns="http://www.w3.org/2000/svg">
<path d="M61.0025 46.4267C58.09 46.4267 55.7291 48.7877 55.7291 51.7002V47.5058C55.7291 44.5933 53.3682 42.2324 50.4557 42.2324C47.5432 42.2324 45.1822 44.5933 45.1822 47.5058C45.1822 44.5933 42.8213 42.2324 39.9088 42.2324C36.9963 42.2324 34.6354 44.5933 34.6354 47.5058V27.5883C34.6354 24.6758 32.2744 22.3148 29.3619 22.3148C26.4494 22.3148 24.0885 24.6758 24.0885 27.5883V44.101V69.9218L17.7256 59.4814C16.1613 56.9148 12.8346 56.0656 10.2315 57.5685C7.72091 59.0179 6.75411 62.159 8.01466 64.7693L17.0113 83.398C21.3371 92.355 30.4068 98.0468 40.3537 98.0468C54.6701 98.0468 66.2758 86.4412 66.2758 72.1248V51.7002C66.276 48.7879 63.915 46.4267 61.0025 46.4267Z" fill="#FFCDAC"/>
<path d="M29.3619 15.9506C30.4406 15.9506 31.3151 15.0762 31.3151 13.9975V1.95312C31.3151 0.874414 30.4406 0 29.3619 0C28.2832 0 27.4088 0.874414 27.4088 1.95312V13.9975C27.4088 15.076 28.2832 15.9506 29.3619 15.9506Z" fill="black"/>
<path d="M40.9971 27.5909C40.9971 28.6697 41.8715 29.5441 42.9502 29.5441H54.9945C56.0732 29.5441 56.9477 28.6697 56.9477 27.5909C56.9477 26.5122 56.0732 25.6378 54.9945 25.6378H42.9502C41.8715 25.6378 40.9971 26.5122 40.9971 27.5909Z" fill="black"/>
<path d="M17.7213 27.5857C17.7213 26.507 16.8469 25.6326 15.7681 25.6326H3.724C2.64529 25.6326 1.77087 26.507 1.77087 27.5857C1.77087 28.6644 2.64529 29.5388 3.724 29.5388H15.7683C16.8469 29.5388 17.7213 28.6644 17.7213 27.5857Z" fill="black"/>
<path d="M16.9375 17.9249C17.319 18.3063 17.8188 18.497 18.3186 18.497C18.8184 18.497 19.3184 18.3063 19.6996 17.9249C20.4623 17.1622 20.4623 15.9255 19.6996 15.1626L14.0131 9.47607C13.2504 8.71338 12.0137 8.71338 11.2508 9.47607C10.4881 10.2388 10.4881 11.4755 11.2508 12.2384L16.9375 17.9249Z" fill="black"/>
<path d="M40.4037 18.5009C40.9035 18.5009 41.4035 18.3103 41.7848 17.9288L47.4713 12.2423C48.234 11.4796 48.234 10.2429 47.4713 9.47998C46.7086 8.71729 45.4719 8.71729 44.709 9.47998L39.0225 15.1665C38.2598 15.9292 38.2598 17.1659 39.0225 17.9288C39.4039 18.3103 39.9039 18.5009 40.4037 18.5009Z" fill="black"/>
<path d="M61.0026 44.4738C59.684 44.4738 58.4481 44.8304 57.3826 45.4498C56.4948 42.4638 53.7262 40.2793 50.4557 40.2793C48.377 40.2793 46.502 41.1627 45.1823 42.5722C43.8627 41.1627 41.9873 40.2793 39.9088 40.2793C38.7121 40.2793 37.5836 40.5734 36.5885 41.0904V27.5883C36.5885 23.6035 33.3467 20.3617 29.3619 20.3617C25.3772 20.3617 22.1354 23.6035 22.1354 27.5883V37.8865C22.1354 38.9652 23.0098 39.8396 24.0885 39.8396C25.1672 39.8396 26.0416 38.9652 26.0416 37.8865V27.5883C26.0416 25.7574 27.5311 24.2679 29.3619 24.2679C31.1928 24.2679 32.6823 25.7574 32.6823 27.5883V60.2851C32.6823 61.3638 33.5567 62.2383 34.6354 62.2383C35.7141 62.2383 36.5885 61.3638 36.5885 60.2851V47.5058C36.5885 45.675 38.078 44.1855 39.9088 44.1855C41.7397 44.1855 43.2291 45.675 43.2291 47.5058V49.3908V60.2851C43.2291 61.3638 44.1035 62.2383 45.1823 62.2383C46.261 62.2383 47.1354 61.3638 47.1354 60.2851V49.3908V47.5058C47.1354 45.675 48.6248 44.1855 50.4557 44.1855C52.2866 44.1855 53.776 45.675 53.776 47.5058V51.7002V55.0781V60.2853C53.776 61.364 54.6504 62.2385 55.7291 62.2385C56.8078 62.2385 57.6823 61.364 57.6823 60.2853V55.0781V51.7002C57.6823 49.8693 59.1717 48.3799 61.0026 48.3799C62.8334 48.3799 64.3229 49.8693 64.3229 51.7002V72.1248C64.3229 73.5797 64.1918 75.0363 63.933 76.4543C63.7395 77.5156 64.4428 78.5326 65.5039 78.7261C65.6225 78.7476 65.7403 78.7582 65.8567 78.7582C66.7821 78.7582 67.6039 78.0978 67.776 77.155C68.0766 75.5064 68.2291 73.814 68.2291 72.1246V51.7002C68.2291 47.7156 64.9873 44.4738 61.0026 44.4738Z" fill="black"/>
<path d="M56.7006 89.6549C52.2498 93.807 46.4443 96.0938 40.3537 96.0938C31.216 96.0938 22.7439 90.777 18.7701 82.5484L9.77343 63.9199C8.96191 62.2398 9.59218 60.193 11.208 59.26C12.8787 58.2957 15.0539 58.851 16.0578 60.4979L22.4209 70.9383C22.8766 71.6857 23.7738 72.0389 24.6166 71.8023C25.4594 71.5658 26.0418 70.7973 26.0418 69.9219V50.7812C26.0418 49.7025 25.1674 48.8281 24.0887 48.8281C23.01 48.8281 22.1355 49.7025 22.1355 50.7812V62.9643L19.3934 58.465C17.2594 54.9635 12.8059 53.8268 9.25487 55.8771C5.87694 57.8273 4.55956 62.1064 6.25605 65.6187L15.2527 84.2473C17.5351 88.9732 21.0912 92.9459 25.5365 95.7355C29.9818 98.5254 35.1057 100 40.3539 100C47.4371 100 54.1887 97.3404 59.3652 92.5111C60.1539 91.7752 60.1969 90.5395 59.4609 89.7506C58.7252 88.9619 57.4891 88.9191 56.7006 89.6549Z" fill="black"/>
<path d="M63.1332 82.5527C62.6195 82.5527 62.1156 82.7617 61.7523 83.125C61.389 83.4883 61.1801 83.9922 61.1801 84.5059C61.1801 85.0215 61.389 85.5234 61.7523 85.8867C62.1156 86.25 62.6195 86.459 63.1332 86.459C63.6469 86.459 64.1508 86.25 64.514 85.8867C64.8773 85.5234 65.0863 85.0215 65.0863 84.5059C65.0863 83.9922 64.8773 83.4883 64.514 83.125C64.1508 82.7617 63.6469 82.5527 63.1332 82.5527Z" fill="black"/>
<path d="M24.0883 46.4844C24.6019 46.4844 25.1058 46.2754 25.4691 45.9121C25.8324 45.5488 26.0414 45.0449 26.0414 44.5312C26.0414 44.0176 25.8324 43.5137 25.4691 43.1504C25.1058 42.7871 24.6019 42.5781 24.0883 42.5781C23.5746 42.5781 23.0707 42.7871 22.7074 43.1504C22.3441 43.5137 22.1351 44.0176 22.1351 44.5312C22.1351 45.0449 22.3441 45.5488 22.7074 45.9121C23.0707 46.2754 23.5746 46.4844 24.0883 46.4844Z" fill="black"/>
</svg>
