<svg width="100" height="100" viewBox="0 0 100 100" fill="none" xmlns="http://www.w3.org/2000/svg">
<g clip-path="url(#clip0)">
<path d="M65.0785 23.9636H8.64062C4.94727 23.9636 1.95312 26.9578 1.95312 30.6511V68.4468H71.766V30.6511C71.766 26.9576 68.7721 23.9636 65.0785 23.9636V23.9636ZM31.8014 58.1408C31.8014 59.9332 30.3482 61.3863 28.5559 61.3863H12.6699C10.8775 61.3863 9.42441 59.9334 9.42441 58.1408V37.9462C9.42441 36.1539 10.8775 34.7009 12.6699 34.7009H28.5561C30.3484 34.7009 31.8016 36.1539 31.8016 37.9462V58.1408H31.8014ZM64.2947 58.8802C64.2947 60.2642 63.1728 61.3863 61.7887 61.3863H40.7301C39.3461 61.3863 38.224 60.2644 38.224 58.8802V55.6771C38.224 54.2931 39.3459 53.1711 40.7301 53.1711H61.7889C63.1728 53.1711 64.2949 54.2929 64.2949 55.6771V58.8802H64.2947ZM64.2947 41.0937C64.2947 42.4777 63.1728 43.5998 61.7887 43.5998H40.7301C39.3461 43.5998 38.224 42.4779 38.224 41.0937V37.2068C38.224 35.8228 39.3459 34.7009 40.7301 34.7009H61.7889C63.1728 34.7009 64.2949 35.8228 64.2949 37.2068V41.0937H64.2947Z" fill="white"/>
<path d="M1.95312 72.1926C1.95312 75.886 4.94727 78.8801 8.64062 78.8801H31.4641H42.2244H65.0785C68.7719 78.8801 71.766 75.886 71.766 72.1926V68.4465H1.95312V72.1926Z" fill="#A5DBFF"/>
<path d="M28.5561 34.7009H12.6699C10.8775 34.7009 9.42442 36.1539 9.42442 37.9462V58.1408C9.42442 59.9332 10.8775 61.3863 12.6699 61.3863H28.5561C30.3484 61.3863 31.8016 59.9334 31.8016 58.1408V37.9462C31.8014 36.1539 30.3484 34.7009 28.5561 34.7009Z" fill="#66E4D1"/>
<path d="M61.7887 34.7009H40.7301C39.3461 34.7009 38.224 35.8228 38.224 37.2068V41.0937C38.224 42.4777 39.3459 43.5998 40.7301 43.5998H61.7889C63.1728 43.5998 64.2949 42.4779 64.2949 41.0937V37.2068C64.2947 35.8228 63.1728 34.7009 61.7887 34.7009V34.7009Z" fill="#FFF398"/>
<path d="M61.7887 53.1709H40.7301C39.3461 53.1709 38.224 54.2928 38.224 55.677V58.8801C38.224 60.2641 39.3459 61.3861 40.7301 61.3861H61.7889C63.1728 61.3861 64.2949 60.2643 64.2949 58.8801V55.677C64.2947 54.293 63.1728 53.1709 61.7887 53.1709V53.1709Z" fill="#9593E6"/>
<path d="M92.6942 44.9662C95.9007 44.7381 98.3152 41.9537 98.0871 38.7472C97.859 35.5406 95.0746 33.1262 91.8681 33.3543C88.6616 33.5824 86.2471 36.3667 86.4752 39.5733C86.7033 42.7798 89.4877 45.1943 92.6942 44.9662Z" fill="#FFF7BA"/>
<path d="M98.0582 17.2833C98.3763 14.0864 96.0426 11.237 92.8457 10.9189C89.6488 10.6008 86.7993 12.9345 86.4812 16.1314C86.1632 19.3283 88.4969 22.1778 91.6938 22.4959C94.8907 22.8139 97.7401 20.4802 98.0582 17.2833Z" fill="#FFF398"/>
<path d="M93.1415 63.0326C96.3127 62.5185 98.4667 59.531 97.9526 56.3598C97.4386 53.1886 94.4511 51.0346 91.2799 51.5487C88.1087 52.0628 85.9547 55.0502 86.4687 58.2214C86.9828 61.3926 89.9703 63.5467 93.1415 63.0326Z" fill="#CBCAF3"/>
<path d="M30.3273 89.1306H43.3611L42.2244 78.8804H31.4641L30.3273 89.1306Z" fill="white"/>
<path d="M73.7191 41.1032H84.7074C85.576 44.4458 88.6189 46.9208 92.2293 46.9208C96.5141 46.9208 100 43.4349 100 39.1501C100 34.8653 96.5141 31.3796 92.2293 31.3796C88.6189 31.3796 85.576 33.8546 84.7074 37.197H73.7191V30.6509C73.7191 25.8862 69.843 22.0103 65.0785 22.0103H22.5746C22.6629 20.1378 24.2094 18.6403 26.1035 18.6403H84.7074C85.576 21.9827 88.6189 24.4577 92.2293 24.4577C96.5141 24.4577 100 20.9718 100 16.6872C100 12.4024 96.5141 8.9165 92.2293 8.9165C88.6189 8.9165 85.576 11.3917 84.7074 14.7341H26.1035C22.0553 14.7341 18.7539 17.9831 18.6641 22.0103H8.64063C3.87617 22.0103 0 25.8864 0 30.6509V72.1927C0 76.9571 3.87617 80.8331 8.64063 80.8331H29.2822L28.5787 87.177H23.8105C22.7318 87.177 21.8574 88.0516 21.8574 89.1302C21.8574 90.2087 22.7318 91.0833 23.8105 91.0833H49.8779C50.9566 91.0833 51.8311 90.2087 51.8311 89.1302C51.8311 88.0516 50.9566 87.177 49.8779 87.177H45.1096L44.4061 80.8331H65.0785C69.843 80.8331 73.7191 76.9569 73.7191 72.1927C73.7191 68.8518 73.7191 62.3317 73.7191 59.2315H84.7074C85.576 62.5741 88.6189 65.0491 92.2293 65.0491C96.5141 65.0491 100 61.5632 100 57.2784C100 52.9936 96.5141 49.5077 92.2293 49.5077C88.6189 49.5077 85.576 51.9829 84.7074 55.3253H73.7191V41.1032ZM92.2293 35.2858C94.3602 35.2858 96.0938 37.0194 96.0938 39.1501C96.0938 41.281 94.3602 43.0145 92.2293 43.0145C90.0984 43.0145 88.3648 41.281 88.3648 39.1501C88.3648 37.0194 90.0984 35.2858 92.2293 35.2858ZM92.2293 12.8228C94.3602 12.8228 96.0938 14.5563 96.0938 16.6872C96.0938 18.8179 94.3602 20.5515 92.2293 20.5515C90.0984 20.5515 88.3648 18.8179 88.3648 16.6872C88.3648 14.5563 90.0984 12.8228 92.2293 12.8228ZM92.2293 53.414C94.3602 53.414 96.0938 55.1476 96.0938 57.2784C96.0938 59.4093 94.3602 61.1429 92.2293 61.1429C90.0984 61.1429 88.3648 59.4093 88.3648 57.2784C88.3648 55.1476 90.0984 53.414 92.2293 53.414ZM41.1793 87.1774H32.509L33.2125 80.8335H40.476L41.1793 87.1774ZM69.8129 66.4934H63.3463C62.2676 66.4934 61.3932 67.3681 61.3932 68.4466C61.3932 69.5251 62.2676 70.3997 63.3463 70.3997H69.8129V72.1929C69.8129 74.8032 67.6891 76.927 65.0785 76.927C63.1225 76.927 11.3957 76.927 8.64063 76.927C6.03008 76.927 3.90625 74.8032 3.90625 72.1929V70.3997H47.7213C48.8 70.3997 49.6744 69.5251 49.6744 68.4466C49.6744 67.3681 48.8 66.4934 47.7213 66.4934H3.90625V30.6511C3.90625 28.0405 6.03008 25.9167 8.64063 25.9167H18.6598V32.7479H12.6699C9.80352 32.7479 7.47129 35.08 7.47129 37.9464V58.1407C7.47129 61.0073 9.80332 63.3393 12.6699 63.3393H28.5561C31.4225 63.3393 33.7545 61.0073 33.7545 58.1407V37.9462C33.7545 35.0798 31.4225 32.7478 28.5561 32.7478H22.5662V25.9165H65.0787C67.6893 25.9165 69.8131 28.0403 69.8131 30.6509V37.197H66.2477C66.2424 34.7427 64.2443 32.7478 61.7889 32.7478H40.7301C38.2713 32.7478 36.2709 34.7479 36.2709 37.2067V41.0936C36.2709 43.5524 38.2713 45.5526 40.7301 45.5526H61.7889C64.2445 45.5526 66.2426 43.5575 66.2477 41.1032H69.8131V55.3253H66.2328C66.0527 53.0304 64.1293 51.2179 61.7889 51.2179H40.7301C38.2713 51.2179 36.2709 53.2181 36.2709 55.6768V58.88C36.2709 61.3388 38.2713 63.3391 40.7301 63.3391H61.7889C64.1293 63.3391 66.0527 61.5265 66.2328 59.2315H69.8131V66.4934H69.8129ZM28.5561 36.654C29.2686 36.654 29.8482 37.2337 29.8482 37.9462V58.1407C29.8482 58.8532 29.2686 59.4331 28.5561 59.4331H12.6699C11.9574 59.4331 11.3775 58.8532 11.3775 58.1407V37.9462C11.3775 37.2337 11.9572 36.654 12.6699 36.654H28.5561ZM62.3416 37.2067V41.0936C62.3416 41.3985 62.0936 41.6464 61.7887 41.6464H40.7301C40.4252 41.6464 40.1771 41.3983 40.1771 41.0936V37.2067C40.1771 36.9019 40.4252 36.654 40.7301 36.654H61.7889C62.0936 36.654 62.3416 36.902 62.3416 37.2067V37.2067ZM62.3416 55.6768V58.88C62.3416 59.185 62.0936 59.4329 61.7887 59.4329H40.7301C40.4252 59.4329 40.1771 59.1849 40.1771 58.88V55.6768C40.1771 55.372 40.4252 55.1241 40.7301 55.1241H61.7889C62.0936 55.1241 62.3416 55.3722 62.3416 55.6768V55.6768Z" fill="black"/>
<path d="M15.8973 54.1784C16.7508 54.8346 17.9774 54.677 18.6359 53.8202L20.6129 51.2483L22.5899 53.8202C23.2484 54.6768 24.4742 54.8348 25.3285 54.1784C26.1838 53.521 26.3441 52.2946 25.6867 51.4395L23.0764 48.0436L25.6867 44.6477C26.3441 43.7924 26.1838 42.5663 25.3285 41.9088C24.4734 41.2514 23.2471 41.412 22.5899 42.267L20.6129 44.8389L18.6359 42.267C17.9787 41.4122 16.7524 41.2518 15.8973 41.9088C15.042 42.5663 14.8816 43.7926 15.5391 44.6477L18.1494 48.0436L15.5391 51.4393C14.8816 52.2946 15.042 53.5208 15.8973 54.1784Z" fill="black"/>
<path d="M55.5387 66.4934H55.5338C54.4551 66.4934 53.5832 67.368 53.5832 68.4465C53.5832 69.525 54.46 70.3997 55.5387 70.3997C56.6174 70.3997 57.4918 69.525 57.4918 68.4465C57.4918 67.368 56.6174 66.4934 55.5387 66.4934Z" fill="black"/>
</g>
<defs>
<clipPath id="clip0">
<rect width="100" height="100" fill="white"/>
</clipPath>
</defs>
</svg>
